<svg id="Ebene_1" xmlns="http://www.w3.org/2000/svg" viewBox="0 0 19.8 31.8"><style>.st0{fill:none;}</style><path class="st0" d="M8.5 4.8v2.8c0 1 .7 1.8 1.5 1.8s1.5-.8 1.5-1.8V4.8c0-1-.7-1.8-1.5-1.8s-1.5.7-1.5 1.8zM.8 21.9c0 5.1 4.1 9.2 9.2 9.2s9.2-4.1 9.2-9.2v-9.6H.8v9.6zm7.9.5l.9.9v-7.6l-.9.9v-1.1l1.3-1.3 1.3 1.3v1.1l-.9-.9v7.6l.9-.9v1.1L10 24.8l-1.3-1.3v-1.1z"/><path class="st0" d="M10.3.8v1.5c1 .2 1.8 1.3 1.8 2.5v2.8c0 1.4-1 2.6-2.2 2.6S7.7 8.9 7.7 7.5V4.8c0-1.3.8-2.3 1.8-2.5V.8C4.7 1 .8 5 .8 9.9v1.6h18.3V9.9C19.1 5 15.2 1 10.3.8z"/><path d="M9.9 0C4.5 0 0 4.5 0 9.9v12c0 5.5 4.5 9.9 9.9 9.9s9.9-4.5 9.9-9.9v-12c0-5.4-4.4-9.9-9.9-9.9zm1.5 4.8v2.8c0 1-.7 1.8-1.5 1.8s-1.4-.9-1.4-1.9V4.8c0-1 .7-1.8 1.5-1.8s1.4.7 1.4 1.8zm7.7 17.1c0 5.1-4.1 9.2-9.2 9.2S.7 27 .7 21.9v-9.6H19v9.6zm0-10.4H.8V9.9C.8 5 4.7.9 9.6.7v1.5c-1 .2-1.8 1.3-1.8 2.5v2.8c0 1.4 1 2.6 2.2 2.6s2.2-1.2 2.2-2.6V4.8c0-1.3-.8-2.3-1.8-2.5V.8c4.8.2 8.7 4.2 8.7 9.1v1.6z"/><path d="M11.2 23.4v-1l-.9.9v-7.6l.9.9v-1.1l-1.3-1.3-1.2 1.3v1.1l.8-.9v7.6l-.8-.9v1l1.2 1.3z"/></svg>