<?xml version="1.0" encoding="utf-8"?>
<!-- Generator: Adobe Illustrator 19.0.0, SVG Export Plug-In . SVG Version: 6.00 Build 0)  -->
<svg version="1.1" id="svg-source" xmlns="http://www.w3.org/2000/svg" xmlns:xlink="http://www.w3.org/1999/xlink" x="0px" y="0px"
	 viewBox="900.1 383.7 32.1 32.1" style="enable-background:new 900.1 383.7 32.1 32.1;" xml:space="preserve">
<g>
	<path d="M900.9,385.3h30.5c0.4,0,0.8-0.3,0.8-0.8c0-0.4-0.4-0.8-0.8-0.8h-30.5c-0.4,0-0.8,0.3-0.8,0.8
		C900.1,384.9,900.4,385.3,900.9,385.3z"/>
	<path d="M900.9,395.4H922c0.4,0,0.8-0.3,0.8-0.8c0-0.4-0.3-0.8-0.8-0.8h-21.1c-0.4,0-0.8,0.3-0.8,0.8S900.5,395.4,900.9,395.4z"/>
	<path d="M900.9,405.6h20.9c0.4,0,0.8-0.3,0.8-0.8c0-0.4-0.3-0.8-0.8-0.8h-20.9c-0.4,0-0.8,0.3-0.8,0.8
		C900.2,405.2,900.5,405.6,900.9,405.6z"/>
	<path d="M931.4,414.2h-30.5c-0.4,0-0.8,0.3-0.8,0.8s0.3,0.8,0.8,0.8h30.5c0.4,0,0.8-0.3,0.8-0.8S931.8,414.2,931.4,414.2z"/>
</g>
</svg>
