<?xml version="1.0" encoding="utf-8"?>
<!-- Generator: Adobe Illustrator 19.0.0, SVG Export Plug-In . SVG Version: 6.00 Build 0)  -->
<svg version="1.1" id="Ebene_1" xmlns="http://www.w3.org/2000/svg" xmlns:xlink="http://www.w3.org/1999/xlink" x="0px" y="0px"
	 viewBox="0 0 19.8 31.8" style="enable-background:new 0 0 19.8 31.8;" xml:space="preserve">
<style type="text/css">
	.st0{fill:none;}
</style>
<g>
	<path class="st0" d="M8.5,4.8v2.8c0,1,0.7,1.8,1.5,1.8s1.5-0.8,1.5-1.8V4.8c0-1-0.7-1.8-1.5-1.8S8.5,3.7,8.5,4.8z"/>
	<path class="st0" d="M0.8,21.9c0,5.1,4.1,9.2,9.2,9.2s9.2-4.1,9.2-9.2v-9.6H0.8V21.9z M8.7,22.4l0.9,0.9v-7.6l-0.9,0.9v-1.1
		l1.3-1.3l1.3,1.3v1.1l-0.9-0.9v7.6l0.9-0.9v1.1l-1.3,1.3l-1.3-1.3V22.4z"/>
	<path class="st0" d="M10.3,0.8v1.5c1,0.2,1.8,1.3,1.8,2.5v2.8c0,1.4-1,2.6-2.2,2.6S7.7,8.9,7.7,7.5V4.8c0-1.3,0.8-2.3,1.8-2.5V0.8
		C4.7,1,0.8,5,0.8,9.9v1.6h18.3V9.9C19.1,5,15.2,1,10.3,0.8z"/>
	<path d="M9.9,0C4.5,0,0,4.5,0,9.9v12c0,5.5,4.5,9.9,9.9,9.9s9.9-4.5,9.9-9.9v-12C19.8,4.5,15.4,0,9.9,0z M11.4,4.8v2.8
		c0,1-0.7,1.8-1.5,1.8S8.5,8.5,8.5,7.5V4.8c0-1,0.7-1.8,1.5-1.8S11.4,3.7,11.4,4.8z M19.1,21.9c0,5.1-4.1,9.2-9.2,9.2
		s-9.2-4.1-9.2-9.2v-9.6h18.3V21.9z M19.1,11.5H0.8V9.9c0-4.9,3.9-9,8.8-9.2v1.5c-1,0.2-1.8,1.3-1.8,2.5v2.8c0,1.4,1,2.6,2.2,2.6
		s2.2-1.2,2.2-2.6V4.8c0-1.3-0.8-2.3-1.8-2.5V0.8C15.2,1,19.1,5,19.1,9.9V11.5z"/>
	<polygon points="11.2,23.4 11.2,22.4 10.3,23.3 10.3,15.7 11.2,16.6 11.2,15.5 9.9,14.2 8.7,15.5 8.7,16.6 9.5,15.7 9.5,23.3 
		8.7,22.4 8.7,23.4 9.9,24.7 	"/>
</g>
</svg>
